<svg width="24" height="24" viewBox="0 0 24 24" fill="none" xmlns="http://www.w3.org/2000/svg">
<path d="M17.5 4.49976C15.55 4.49976 13.45 4.89976 12 5.99976C10.55 4.89976 8.45 4.49976 6.5 4.49976C5.05 4.49976 3.51 4.71976 2.22 5.28976C1.49 5.61976 1 6.32976 1 7.13976V18.4198C1 19.7198 2.22 20.6798 3.48 20.3598C4.46 20.1098 5.5 19.9998 6.5 19.9998C8.06 19.9998 9.72 20.2598 11.06 20.9198C11.66 21.2198 12.34 21.2198 12.93 20.9198C14.27 20.2498 15.93 19.9998 17.49 19.9998C18.49 19.9998 19.53 20.1098 20.51 20.3598C21.77 20.6898 22.99 19.7298 22.99 18.4198V7.13976C22.99 6.32976 22.5 5.61976 21.77 5.28976C20.49 4.71976 18.95 4.49976 17.5 4.49976ZM21 17.2298C21 17.8598 20.42 18.3198 19.8 18.2098C19.05 18.0698 18.27 18.0098 17.5 18.0098C15.8 18.0098 13.35 18.6598 12 19.5098V7.99976C13.35 7.14976 15.8 6.49976 17.5 6.49976C18.42 6.49976 19.33 6.58976 20.2 6.77976C20.66 6.87976 21 7.28976 21 7.75976V17.2298Z" fill="url(#paint0_linear_14_13)"/>
<path d="M13.98 11.0097C13.66 11.0097 13.37 10.8097 13.27 10.4897C13.14 10.0997 13.36 9.66973 13.75 9.54973C15.29 9.04973 17.28 8.88973 19.11 9.09973C19.52 9.14973 19.82 9.51973 19.77 9.92973C19.72 10.3397 19.35 10.6397 18.94 10.5897C17.32 10.3997 15.55 10.5497 14.21 10.9797C14.13 10.9897 14.05 11.0097 13.98 11.0097Z" fill="url(#paint1_linear_14_13)"/>
<path d="M13.98 13.6698C13.66 13.6698 13.37 13.4698 13.27 13.1498C13.14 12.7598 13.36 12.3298 13.75 12.2098C15.28 11.7098 17.28 11.5498 19.11 11.7598C19.52 11.8098 19.82 12.1798 19.77 12.5898C19.72 12.9998 19.35 13.2998 18.94 13.2498C17.32 13.0598 15.55 13.2098 14.21 13.6398C14.13 13.6598 14.05 13.6698 13.98 13.6698Z" fill="url(#paint2_linear_14_13)"/>
<path d="M13.98 16.3298C13.66 16.3298 13.37 16.1298 13.27 15.8098C13.14 15.4198 13.36 14.9898 13.75 14.8698C15.28 14.3698 17.28 14.2098 19.11 14.4198C19.52 14.4698 19.82 14.8398 19.77 15.2498C19.72 15.6598 19.35 15.9498 18.94 15.9098C17.32 15.7198 15.55 15.8698 14.21 16.2998C14.13 16.3198 14.05 16.3298 13.98 16.3298Z" fill="url(#paint3_linear_14_13)"/>
<defs>
<linearGradient id="paint0_linear_14_13" x1="11.995" y1="4.49976" x2="11.995" y2="21.1448" gradientUnits="userSpaceOnUse">
<stop stop-color="#B6F829"/>
<stop offset="1" stop-color="#67DD0A"/>
</linearGradient>
<linearGradient id="paint1_linear_14_13" x1="16.504" y1="9.00964" x2="16.504" y2="11.0097" gradientUnits="userSpaceOnUse">
<stop stop-color="#B6F829"/>
<stop offset="1" stop-color="#67DD0A"/>
</linearGradient>
<linearGradient id="paint2_linear_14_13" x1="16.504" y1="11.6697" x2="16.504" y2="13.6698" gradientUnits="userSpaceOnUse">
<stop stop-color="#B6F829"/>
<stop offset="1" stop-color="#67DD0A"/>
</linearGradient>
<linearGradient id="paint3_linear_14_13" x1="16.504" y1="14.3297" x2="16.504" y2="16.3298" gradientUnits="userSpaceOnUse">
<stop stop-color="#B6F829"/>
<stop offset="1" stop-color="#67DD0A"/>
</linearGradient>
</defs>
</svg>
