<svg width="24" height="24" viewBox="0 0 24 24" fill="none" xmlns="http://www.w3.org/2000/svg">
<path d="M12.65 15.6698C12.79 15.3098 12.7 14.8998 12.42 14.6198L10.33 12.5598L10.36 12.5298C12.1 10.5898 13.34 8.35976 14.07 5.99976H16.01C16.55 5.99976 17 5.54976 17 5.00976V4.98976C17 4.44976 16.55 3.99976 16.01 3.99976H10V2.99976C10 2.44976 9.55 1.99976 9 1.99976C8.45 1.99976 8 2.44976 8 2.99976V3.99976H1.99C1.45 3.99976 1 4.44976 1 4.98976C1 5.53976 1.45 5.97976 1.99 5.97976H12.17C11.5 7.91976 10.44 9.74976 9 11.3498C8.19 10.4598 7.51 9.48976 6.94 8.46976C6.78 8.17976 6.49 7.99976 6.16 7.99976C5.47 7.99976 5.03 8.74976 5.37 9.34976C6 10.4798 6.77 11.5598 7.67 12.5598L3.3 16.8698C2.9 17.2598 2.9 17.8998 3.3 18.2898C3.69 18.6798 4.32 18.6798 4.72 18.2898L9 13.9998L11.02 16.0198C11.53 16.5298 12.4 16.3398 12.65 15.6698ZM17.5 9.99976C16.9 9.99976 16.36 10.3698 16.15 10.9398L12.48 20.7398C12.24 21.3498 12.7 21.9998 13.35 21.9998C13.74 21.9998 14.09 21.7598 14.23 21.3898L15.12 18.9998H19.87L20.77 21.3898C20.91 21.7498 21.26 21.9998 21.65 21.9998C22.3 21.9998 22.76 21.3498 22.53 20.7398L18.86 10.9398C18.64 10.3698 18.1 9.99976 17.5 9.99976ZM15.88 16.9998L17.5 12.6698L19.12 16.9998H15.88Z" fill="url(#paint0_linear_14_23)"/>
<defs>
<linearGradient id="paint0_linear_14_23" x1="11.795" y1="1.99976" x2="11.795" y2="21.9998" gradientUnits="userSpaceOnUse">
<stop stop-color="#B6F829"/>
<stop offset="1" stop-color="#67DD0A"/>
</linearGradient>
</defs>
</svg>
